<?xml version="1.0" encoding="UTF-8"?>
<svg width="200px" height="178px" viewBox="0 0 200 178" version="1.1" xmlns="http://www.w3.org/2000/svg" xmlns:xlink="http://www.w3.org/1999/xlink">
    <!-- Generator: Sketch 41.2 (35397) - http://www.bohemiancoding.com/sketch -->
    <title>Artboard 4</title>
    <desc>Created with Sketch.</desc>
    <defs></defs>
    <g id="Page-1" stroke="none" stroke-width="1" fill="none" fill-rule="evenodd">
        <g id="Artboard-4">
            <g id="Group" transform="translate(14.000000, 0.000000)">
                <path d="M104.585786,163.414214 L117.838145,176.666572 C118.619193,177.44762 119.885523,177.44762 120.666572,176.666572 C121.44762,175.885523 121.44762,174.619193 120.666572,173.838145 L107.414214,160.585786 C106.633165,159.804738 105.366835,159.804738 104.585786,160.585786 C103.804738,161.366835 103.804738,162.633165 104.585786,163.414214 Z" id="Path-32" fill="#A9CAEE"></path>
                <path d="M98.5857864,168.414214 L104.7659,174.594327 C105.546948,175.375375 106.813278,175.375375 107.594327,174.594327 C108.375375,173.813278 108.375375,172.546948 107.594327,171.7659 L101.414214,165.585786 C100.633165,164.804738 99.366835,164.804738 98.5857864,165.585786 C97.8047379,166.366835 97.8047379,167.633165 98.5857864,168.414214 Z" id="Path-32" fill="#A9CAEE"></path>
                <path d="M41.5,104.5 L33.0026307,104.5 C25.8214761,104.5 20,98.6811727 20,91.492165 L20,76.4986524 C20,72.6334034 20.7337147,66.4603248 21.6423944,62.6957948 L22.5620642,58.8857339 C23.0800719,56.7397023 23.5,53.2132053 23.5,51.0007252 L23.5,28.0000191 C23.5,26.3431543 24.8362101,25 26.4927597,25 L26.5280376,25 C28.1808931,25 29.5207973,26.3473189 29.5207973,28.0000199 L29.5207973,51.0007314 C29.5207973,53.2094705 29.8801587,56.7490451 30.3270124,58.9239141 L31.0910987,62.6427767 C31.8692134,66.4299166 32.5,72.6374636 32.5,76.4939542 L32.5,84.4938052 C32.5,86.7063655 34.2939249,88.5 36.49839,88.5 L46.0092561,88.5 L46.0092561,104.508102 L41.5,104.5 Z" id="Path-33" fill="#D3E5F7"></path>
                <polygon id="Rectangle-15" fill="#FFFFFF" points="23 26 29.5 26.5 31 35 23 35"></polygon>
                <path d="M44.5092561,103.005405 L41.5026952,103.000002 L33.0026307,103 C26.6482295,103 21.5,97.8510716 21.5,91.492165 L21.5,76.4986524 C21.5,72.7495787 22.2202176,66.6947129 23.1005177,63.0477556 L24.0201875,59.2376947 C24.566317,56.9751584 25,53.3304809 25,51.0007252 L25,28.0000191 C25,27.1692035 25.6670149,26.5 26.4927597,26.5 C27.3498951,26.5 28.0207973,27.1731745 28.0207973,28.0000199 L28.0207973,51.0007314 C28.0207973,53.3136191 28.390994,56.954285 28.8577051,59.2258014 L29.6217914,62.9446641 C30.37907,66.6303932 31,72.736751 31,76.4939542 L31,84.4938052 C31,87.5330488 33.463755,90 36.49839,90 L44.5092561,90 L44.5092561,103.005405 Z M47.5092561,106.0108 L47.5092561,87 L36.49839,87 C35.1214805,87 34,85.8770646 34,84.4938052 L34,76.4939542 C34,72.5339187 33.3584997,66.2252682 32.5604061,62.3408894 L31.7963198,58.6220267 C31.3704241,56.549162 31.0207973,53.1107889 31.0207973,51.0007314 L31.0207973,28.0000199 C31.0207973,25.5185868 29.0090244,23.5 26.5280376,23.5 C24.0079568,23.5 22,25.5145451 22,28.0000191 L22,51.0007252 C22,53.0933453 21.5944333,56.5017334 21.1039409,58.5337731 L20.184271,62.343834 C19.2483241,66.2213286 18.5,72.5124851 18.5,76.4986524 L18.5,91.492165 C18.5,99.5078347 24.9912841,106 33.0026307,106 L41.4986524,106 L47.5092561,106.0108 Z" id="Path-33" fill="#0076DC"></path>
                <path d="M27.788872,53.7049657 C28.6466161,46.588322 35.1172774,40.1612745 42.2600601,39.3817225 L54.7407346,38.1082946 C71.2592661,36.9625134 98.0636734,36.6421855 114.577954,37.9680369 L130.700055,39.4908898 C137.831542,40.2244635 144.259388,46.6035413 145.025898,53.7497195 L146.358344,67.0432098 C147.484938,83.5544451 147.782403,110.35488 146.434528,126.863253 L144.963293,142.181776 C144.217411,149.310759 137.814475,155.646822 130.668042,156.308402 L114.577954,157.699136 C98.0493019,158.67681 71.2294646,158.881016 54.7227821,157.569188 L42.2600601,156.405399 C35.1255877,155.678892 28.6311678,149.318621 27.7870635,142.188524 L26.2000336,127.835592 C24.9559545,111.332744 24.651285,84.54861 26.2019852,68.0548153 L27.788872,53.7049657 Z" id="Rectangle-14" fill="#D3E5F7" transform="translate(86.239760, 97.798144) rotate(45.000000) translate(-86.239760, -97.798144) "></path>
                <path d="M97.5,29 C97.5,29 28.5,88 28.5,102 L28.5,122.5 L13.5,104.5 L13.5,91.5 L38.5,61.5 L78.5,26 L90,24 L97.5,29 Z" id="Path-31" fill="#A9CAEE"></path>
                <path d="M126.601365,107.122283 L126.601365,132.118984 C126.601365,132.673091 127.04523,133.122283 127.601365,133.122283 L127.601365,133.122283 C128.15365,133.122283 128.601365,132.671005 128.601365,132.118984 L128.601365,107.122283 L126.601365,107.122283 Z" id="Path-8" fill="#A9CAEE" transform="translate(127.601365, 120.122283) rotate(134.000000) translate(-127.601365, -120.122283) "></path>
                <path d="M130.601365,103.122283 L130.601365,128.118984 C130.601365,128.673091 131.04523,129.122283 131.601365,129.122283 L131.601365,129.122283 C132.15365,129.122283 132.601365,128.671005 132.601365,128.118984 L132.601365,103.122283 L130.601365,103.122283 Z" id="Path-8" fill="#A9CAEE" transform="translate(131.601365, 116.122283) rotate(134.000000) translate(-131.601365, -116.122283) "></path>
                <path d="M67.3696075,37.3940793 C55.6509248,47.0986116 37.2378119,65.6382334 25.6239281,79.1384566 L16.66006,90.3308734 C13.3811546,94.4903838 13.4470074,101.500465 16.7789825,105.588192 L24.732994,115.181324 C34.6026163,126.755109 53.1267939,145.249302 66.5375296,157.166236 L78.8379573,167.509574 C82.888394,170.873615 89.7717702,170.912998 93.8345357,167.620043 L105.662877,157.865192 C117.301549,147.983605 135.746139,129.381403 147.44101,115.979765 L155.84083,105.708638 C159.161224,101.590359 159.141765,94.6337161 155.825516,90.5567767 L145.538456,78.1230024 C135.625825,66.4797543 116.992044,48.0408152 103.596493,36.3776647 L93.9432007,28.5117516 C89.8041837,25.1872872 82.7568345,25.151208 78.5710391,28.4240814 L67.3696075,37.3940793 Z M76.0873263,25.2885397 C81.72607,20.8628294 90.8461273,20.893669 96.448064,25.3931525 L106.173683,33.3178726 C118.664238,44.1880486 137.844322,62.9151207 148.584164,75.5299993 L158.907391,88.0068658 C163.431399,93.5683034 163.465883,102.624166 158.954777,108.219282 L150.497041,118.56138 C139.618457,131.033209 120.878027,150.194318 108.251753,160.914408 L96.3796015,170.70592 C90.811231,175.219454 81.8033986,175.172168 76.2822994,170.586685 L63.9214919,160.192672 C51.5426497,149.196469 32.4337656,130.376376 21.689381,117.776786 L13.6998286,108.141388 C9.16871285,102.582836 9.07385546,93.4931966 13.5187232,87.8545852 L22.5455792,76.58333 C33.3351584,64.0343573 52.0589672,44.8796807 64.8183519,34.3133173 L76.0873263,25.2885397 Z" id="Rectangle-14" fill="#0076DC"></path>
                <circle id="Oval-4" fill="#FFFFFF" cx="145" cy="99" r="6"></circle>
                <path d="M145,102 C146.656854,102 148,100.656854 148,99 C148,97.3431458 146.656854,96 145,96 C143.343146,96 142,97.3431458 142,99 C142,100.656854 143.343146,102 145,102 Z M145,105 C141.686292,105 139,102.313708 139,99 C139,95.6862915 141.686292,93 145,93 C148.313708,93 151,95.6862915 151,99 C151,102.313708 148.313708,105 145,105 Z" id="Oval-4" fill="#0076DC"></path>
                <path d="M37.5,20 C37.5,14.2010101 32.7989899,9.5 27,9.5 C21.2010101,9.5 16.5,14.2010101 16.5,20 C16.5,20.8284271 17.1715729,21.5 18,21.5 C18.8284271,21.5 19.5,20.8284271 19.5,20 C19.5,15.8578644 22.8578644,12.5 27,12.5 C31.1421356,12.5 34.5,15.8578644 34.5,20 C34.5,20.8284271 35.1715729,21.5 36,21.5 C36.8284271,21.5 37.5,20.8284271 37.5,20 Z" id="Oval-13" fill="#0076DC"></path>
                <path d="M46.5,20 C46.5,9.23044738 37.7695526,0.5 27,0.5 C16.2304474,0.5 7.5,9.23044738 7.5,20 C7.5,20.8284271 8.17157288,21.5 9,21.5 C9.82842712,21.5 10.5,20.8284271 10.5,20 C10.5,10.8873016 17.8873016,3.5 27,3.5 C36.1126984,3.5 43.5,10.8873016 43.5,20 C43.5,20.8284271 44.1715729,21.5 45,21.5 C45.8284271,21.5 46.5,20.8284271 46.5,20 Z" id="Oval-13" fill="#0076DC"></path>
            </g>
        </g>
    </g>
</svg>