<?xml version='1.0' encoding='utf-8'?>
<mlt title="Anonymous Submission" version="6.4.1" root="/home/raed/Documents/semester1_master_labs/Internet-of-Things/lab2/rendering/video" producer="main bin" LC_NUMERIC="fr_CH.UTF-8">
 <profile width="1920" frame_rate_den="1" height="1080" display_aspect_num="16" display_aspect_den="9" frame_rate_num="25" colorspace="709" sample_aspect_den="1" description="HD 1080p 25 fps" progressive="1" sample_aspect_num="1"/>
 <producer id="1" title="Anonymous Submission" out="10930" in="0">
  <property name="length">00:07:17:06</property>
  <property name="eof">pause</property>
  <property name="resource">ressources/assembly.mp4</property>
  <property name="audio_index">-1</property>
  <property name="video_index">0</property>
  <property name="mute_on_pause">1</property>
  <property name="mlt_service">avformat-novalidate</property>
  <property name="meta.media.nb_streams">1</property>
  <property name="meta.media.0.stream.type">video</property>
  <property name="meta.media.0.stream.frame_rate">29.97</property>
  <property name="meta.media.0.stream.sample_aspect_ratio">1</property>
  <property name="meta.media.0.codec.width">1920</property>
  <property name="meta.media.0.codec.height">1080</property>
  <property name="meta.media.0.codec.rotate">0</property>
  <property name="meta.media.0.codec.frame_rate">29.97</property>
  <property name="meta.media.0.codec.pix_fmt">yuv420p</property>
  <property name="meta.media.0.codec.sample_aspect_ratio">1</property>
  <property name="meta.media.0.codec.colorspace">709</property>
  <property name="meta.media.0.codec.color_trc">13</property>
  <property name="meta.media.0.codec.name">h264</property>
  <property name="meta.media.0.codec.long_name">H.264 / AVC / MPEG-4 AVC / MPEG-4 part 10</property>
  <property name="meta.media.0.codec.bit_rate">619870</property>
  <property name="meta.attr.0.stream.handler_name.markup">VideoHandler</property>
  <property name="meta.attr.major_brand.markup">isom</property>
  <property name="meta.attr.minor_version.markup">512</property>
  <property name="meta.attr.compatible_brands.markup">isomiso2avc1mp41</property>
  <property name="meta.attr.encoder.markup">Lavf57.83.100</property>
  <property name="seekable">1</property>
  <property name="meta.media.sample_aspect_num">1</property>
  <property name="meta.media.sample_aspect_den">1</property>
  <property name="aspect_ratio">1</property>
  <property name="meta.media.frame_rate_num">30000</property>
  <property name="meta.media.frame_rate_den">1001</property>
  <property name="meta.media.colorspace">709</property>
  <property name="meta.media.color_trc">13</property>
  <property name="meta.media.width">1920</property>
  <property name="meta.media.height">1080</property>
  <property name="meta.media.top_field_first">0</property>
  <property name="meta.media.progressive">1</property>
  <property name="kdenlive:folderid">-1</property>
  <property name="kdenlive:file_size">34033997</property>
  <property name="kdenlive:file_hash">c4ece7f19af9272f67f7981354b0807e</property>
  <property name="global_feed">1</property>
 </producer>
 <producer id="3" title="Anonymous Submission" out="157" in="0">
  <property name="length">158</property>
  <property name="eof">pause</property>
  <property name="resource"/>
  <property name="progressive">1</property>
  <property name="aspect_ratio">1</property>
  <property name="seekable">1</property>
  <property name="mlt_service">kdenlivetitle</property>
  <property name="kdenlive:clipname">temp title</property>
  <property name="kdenlive:folderid">-1</property>
  <property name="xmldata">&lt;kdenlivetitle width="1920" duration="125" out="125" height="1080" LC_NUMERIC="fr_CH.UTF-8">
 &lt;item z-index="0" type="QGraphicsTextItem">
  &lt;position x="326" y="480">
   &lt;transform>1,0,0,0,1,0,0,0,1&lt;/transform>
  &lt;/position>
  &lt;content font-italic="0" letter-spacing="0" font-weight="50" box-height="116" shadow="0;#64000000;3;3;3" font="Cabin" font-underline="0" font-pixel-size="95" line-spacing="0" box-width="1243" font-color="255,255,255,255" alignment="4">1. Get temperature from ESP32&lt;/content>
 &lt;/item>
 &lt;startviewport rect="0,0,1920,1080"/>
 &lt;endviewport rect="0,0,1920,1080"/>
 &lt;background color="0,0,0,255"/>
&lt;/kdenlivetitle>
</property>
  <property name="kdenlive:duration">125</property>
  <property name="force_reload">0</property>
  <property name="meta.media.width">1920</property>
  <property name="meta.media.height">1080</property>
  <property name="kdenlive:file_hash">5d5528ddb21b37f61420a35a705e1e01</property>
  <property name="global_feed">1</property>
 </producer>
 <producer id="4" out="157" in="0">
  <property name="length">158</property>
  <property name="eof">pause</property>
  <property name="resource"/>
  <property name="progressive">1</property>
  <property name="aspect_ratio">1</property>
  <property name="seekable">1</property>
  <property name="mlt_service">kdenlivetitle</property>
  <property name="kdenlive:clipname">Title clip</property>
  <property name="kdenlive:folderid">-1</property>
  <property name="xmldata">&lt;kdenlivetitle width="1920" duration="125" out="125" height="1080" LC_NUMERIC="fr_CH.UTF-8">
 &lt;item z-index="0" type="QGraphicsTextItem">
  &lt;position x="224" y="141">
   &lt;transform>1,0,0,0,1,0,0,0,1&lt;/transform>
  &lt;/position>
  &lt;content font-italic="0" letter-spacing="0" font-weight="50" box-height="805" shadow="0;#64000000;3;3;3" font="Cabin" font-underline="0" font-pixel-size="95" line-spacing="0" box-width="1476" font-color="255,255,255,255" alignment="4">Raed Abdennadher &amp;amp; Ludovic Gindre

IoT lab 
demonstration video

Master HES-SO
Janvier 2019&lt;/content>
 &lt;/item>
 &lt;startviewport rect="0,0,1920,1080"/>
 &lt;endviewport rect="0,0,1920,1080"/>
 &lt;background color="0,0,0,255"/>
&lt;/kdenlivetitle>
</property>
  <property name="kdenlive:duration">125</property>
  <property name="force_reload">0</property>
  <property name="kdenlive:file_hash">b759bb534586fe9c1e8bec7a44df1377</property>
  <property name="global_feed">1</property>
  <property name="meta.media.width">1920</property>
  <property name="meta.media.height">1080</property>
 </producer>
 <producer id="5" title="Anonymous Submission" out="3694" in="0">
  <property name="length">3695</property>
  <property name="eof">pause</property>
  <property name="resource"/>
  <property name="progressive">1</property>
  <property name="aspect_ratio">1</property>
  <property name="seekable">1</property>
  <property name="mlt_service">kdenlivetitle</property>
  <property name="kdenlive:clipname">temp comment</property>
  <property name="kdenlive:folderid">-1</property>
  <property name="xmldata">&lt;kdenlivetitle width="1920" duration="125" out="125" height="1080" LC_NUMERIC="fr_CH.UTF-8">
 &lt;item z-index="2" type="QGraphicsTextItem">
  &lt;position x="92" y="23">
   &lt;transform>1,0,0,0,1,0,0,0,1&lt;/transform>
  &lt;/position>
  &lt;content font-italic="0" letter-spacing="0" font-weight="50" box-height="49" shadow="0;#64000000;3;3;3" font="Cabin" font-underline="0" font-pixel-size="40" line-spacing="0" box-width="519" font-color="255,255,255,255" alignment="4">1. Get temperature from ESP32&lt;/content>
 &lt;/item>
 &lt;startviewport rect="0,0,1920,1080"/>
 &lt;endviewport rect="0,0,1920,1080"/>
 &lt;background color="0,0,0,0"/>
&lt;/kdenlivetitle>
</property>
  <property name="kdenlive:duration">125</property>
  <property name="force_reload">0</property>
  <property name="kdenlive:file_hash">d151bf369ce6a465b4b97522d3b5c46b</property>
  <property name="global_feed">1</property>
  <property name="meta.media.width">1920</property>
  <property name="meta.media.height">1080</property>
 </producer>
 <producer id="6" title="Anonymous Submission" out="157" in="0">
  <property name="length">158</property>
  <property name="eof">pause</property>
  <property name="resource"/>
  <property name="progressive">1</property>
  <property name="aspect_ratio">1</property>
  <property name="seekable">1</property>
  <property name="mlt_service">kdenlivetitle</property>
  <property name="kdenlive:clipname">notif title</property>
  <property name="kdenlive:folderid">-1</property>
  <property name="xmldata">&lt;kdenlivetitle width="1920" duration="125" out="125" height="1080" LC_NUMERIC="fr_CH.UTF-8">
 &lt;item z-index="0" type="QGraphicsTextItem">
  &lt;position x="431" y="440">
   &lt;transform>1,0,0,0,1,0,0,0,1&lt;/transform>
  &lt;/position>
  &lt;content font-italic="0" letter-spacing="0" font-weight="50" box-height="230" shadow="0;#64000000;3;3;3" font="Cabin" font-underline="0" font-pixel-size="95" line-spacing="0" box-width="1029" font-color="255,255,255,255" alignment="4">2. Email notification when
temperature > 10&lt;/content>
 &lt;/item>
 &lt;startviewport rect="0,0,1920,1080"/>
 &lt;endviewport rect="0,0,1920,1080"/>
 &lt;background color="0,0,0,255"/>
&lt;/kdenlivetitle>
</property>
  <property name="kdenlive:duration">125</property>
  <property name="force_reload">0</property>
  <property name="kdenlive:file_hash">d151bf369ce6a465b4b97522d3b5c46b</property>
  <property name="global_feed">1</property>
  <property name="meta.media.width">1920</property>
  <property name="meta.media.height">1080</property>
 </producer>
 <producer id="7" title="Anonymous Submission" out="5236" in="0">
  <property name="length">5237</property>
  <property name="eof">pause</property>
  <property name="resource"/>
  <property name="progressive">1</property>
  <property name="aspect_ratio">1</property>
  <property name="seekable">1</property>
  <property name="mlt_service">kdenlivetitle</property>
  <property name="kdenlive:clipname">notif comment</property>
  <property name="kdenlive:folderid">-1</property>
  <property name="xmldata">&lt;kdenlivetitle width="1920" duration="125" out="125" height="1080" LC_NUMERIC="fr_CH.UTF-8">
 &lt;item z-index="2" type="QGraphicsTextItem">
  &lt;position x="92" y="23">
   &lt;transform>1,0,0,0,1,0,0,0,1&lt;/transform>
  &lt;/position>
  &lt;content font-italic="0" letter-spacing="0" font-weight="50" box-height="49" shadow="0;#64000000;3;3;3" font="Cabin" font-underline="0" font-pixel-size="40" line-spacing="0" box-width="724" font-color="255,255,255,255" alignment="4">2. Email notification when temperature > 10&lt;/content>
 &lt;/item>
 &lt;startviewport rect="0,0,1920,1080"/>
 &lt;endviewport rect="0,0,1920,1080"/>
 &lt;background color="0,0,0,0"/>
&lt;/kdenlivetitle>
</property>
  <property name="kdenlive:duration">125</property>
  <property name="force_reload">0</property>
  <property name="kdenlive:file_hash">e331f9dcdcfb11b3a4f6c3a4f972e821</property>
  <property name="global_feed">1</property>
  <property name="meta.media.width">1920</property>
  <property name="meta.media.height">1080</property>
 </producer>
 <producer id="8" title="Anonymous Submission" out="157" in="0">
  <property name="length">158</property>
  <property name="eof">pause</property>
  <property name="resource"/>
  <property name="progressive">1</property>
  <property name="aspect_ratio">1</property>
  <property name="seekable">1</property>
  <property name="mlt_service">kdenlivetitle</property>
  <property name="kdenlive:clipname">waspmote title</property>
  <property name="kdenlive:folderid">-1</property>
  <property name="xmldata">&lt;kdenlivetitle width="1920" duration="125" out="125" height="1080" LC_NUMERIC="fr_CH.UTF-8">
 &lt;item z-index="0" type="QGraphicsTextItem">
  &lt;position x="310" y="440">
   &lt;transform>1,0,0,0,1,0,0,0,1&lt;/transform>
  &lt;/position>
  &lt;content font-italic="0" letter-spacing="0" font-weight="50" box-height="230" shadow="0;#64000000;3;3;3" font="Cabin" font-underline="0" font-pixel-size="95" line-spacing="0" box-width="1322" font-color="255,255,255,255" alignment="4">3. Get acceleration and LED state
from waspmote&lt;/content>
 &lt;/item>
 &lt;startviewport rect="0,0,1920,1080"/>
 &lt;endviewport rect="0,0,1920,1080"/>
 &lt;background color="0,0,0,255"/>
&lt;/kdenlivetitle>
</property>
  <property name="kdenlive:duration">125</property>
  <property name="force_reload">0</property>
  <property name="kdenlive:file_hash">32df1f698dfa4fe675cbc022969db69f</property>
  <property name="global_feed">1</property>
  <property name="meta.media.width">1920</property>
  <property name="meta.media.height">1080</property>
 </producer>
 <producer id="9" title="Anonymous Submission" out="5232" in="0">
  <property name="length">5233</property>
  <property name="eof">pause</property>
  <property name="resource"/>
  <property name="progressive">1</property>
  <property name="aspect_ratio">1</property>
  <property name="seekable">1</property>
  <property name="mlt_service">kdenlivetitle</property>
  <property name="kdenlive:clipname">waspmote comment</property>
  <property name="kdenlive:folderid">-1</property>
  <property name="xmldata">&lt;kdenlivetitle width="1920" duration="125" out="125" height="1080" LC_NUMERIC="fr_CH.UTF-8">
 &lt;item z-index="2" type="QGraphicsTextItem">
  &lt;position x="92" y="23">
   &lt;transform>1,0,0,0,1,0,0,0,1&lt;/transform>
  &lt;/position>
  &lt;content font-italic="0" letter-spacing="0" font-weight="50" box-height="49" shadow="0;#64000000;3;3;3" font="Cabin" font-underline="0" font-pixel-size="40" line-spacing="0" box-width="829" font-color="255,255,255,255" alignment="4">3. Get acceleration and LED state from waspmote&lt;/content>
 &lt;/item>
 &lt;startviewport rect="0,0,1920,1080"/>
 &lt;endviewport rect="0,0,1920,1080"/>
 &lt;background color="0,0,0,0"/>
&lt;/kdenlivetitle>
</property>
  <property name="kdenlive:duration">125</property>
  <property name="force_reload">0</property>
  <property name="kdenlive:file_hash">e331f9dcdcfb11b3a4f6c3a4f972e821</property>
  <property name="global_feed">1</property>
  <property name="meta.media.width">1920</property>
  <property name="meta.media.height">1080</property>
 </producer>
 <producer id="10" title="Anonymous Submission" out="157" in="0">
  <property name="length">158</property>
  <property name="eof">pause</property>
  <property name="resource"/>
  <property name="progressive">1</property>
  <property name="aspect_ratio">1</property>
  <property name="seekable">1</property>
  <property name="mlt_service">kdenlivetitle</property>
  <property name="kdenlive:clipname">publish title</property>
  <property name="kdenlive:folderid">-1</property>
  <property name="xmldata">&lt;kdenlivetitle width="1920" duration="125" out="125" height="1080" LC_NUMERIC="fr_CH.UTF-8">
 &lt;item z-index="0" type="QGraphicsTextItem">
  &lt;position x="340" y="448">
   &lt;transform>1,0,0,0,1,0,0,0,1&lt;/transform>
  &lt;/position>
  &lt;content font-italic="0" letter-spacing="0" font-weight="50" box-height="230" shadow="0;#64000000;3;3;3" font="Cabin" font-underline="0" font-pixel-size="95" line-spacing="0" box-width="1270" font-color="255,255,255,255" alignment="4">4. Change waspmote LED state 
by publishing a downlink&lt;/content>
 &lt;/item>
 &lt;startviewport rect="0,0,1920,1080"/>
 &lt;endviewport rect="0,0,1920,1080"/>
 &lt;background color="0,0,0,255"/>
&lt;/kdenlivetitle>
</property>
  <property name="kdenlive:duration">125</property>
  <property name="force_reload">0</property>
  <property name="kdenlive:file_hash">32df1f698dfa4fe675cbc022969db69f</property>
  <property name="global_feed">1</property>
  <property name="meta.media.width">1920</property>
  <property name="meta.media.height">1080</property>
 </producer>
 <producer id="11" title="Anonymous Submission" out="5232" in="0">
  <property name="length">5233</property>
  <property name="eof">pause</property>
  <property name="resource"/>
  <property name="progressive">1</property>
  <property name="aspect_ratio">1</property>
  <property name="seekable">1</property>
  <property name="mlt_service">kdenlivetitle</property>
  <property name="kdenlive:clipname">publish comment</property>
  <property name="kdenlive:folderid">-1</property>
  <property name="xmldata">&lt;kdenlivetitle width="1920" duration="125" out="125" height="1080" LC_NUMERIC="fr_CH.UTF-8">
 &lt;item z-index="2" type="QGraphicsTextItem">
  &lt;position x="92" y="23">
   &lt;transform>1,0,0,0,1,0,0,0,1&lt;/transform>
  &lt;/position>
  &lt;content font-italic="0" letter-spacing="0" font-weight="50" box-height="49" shadow="0;#64000000;3;3;3" font="Cabin" font-underline="0" font-pixel-size="40" line-spacing="0" box-width="952" font-color="255,255,255,255" alignment="4">4. Change waspmote LED state  by publishing a downlink&lt;/content>
 &lt;/item>
 &lt;startviewport rect="0,0,1920,1080"/>
 &lt;endviewport rect="0,0,1920,1080"/>
 &lt;background color="0,0,0,0"/>
&lt;/kdenlivetitle>
</property>
  <property name="kdenlive:duration">125</property>
  <property name="force_reload">0</property>
  <property name="kdenlive:file_hash">c2153e532d5dc94c064e1909ea67dca6</property>
  <property name="global_feed">1</property>
  <property name="meta.media.width">1920</property>
  <property name="meta.media.height">1080</property>
 </producer>
 <producer id="12" title="Anonymous Submission" out="133" in="0">
  <property name="length">00:00:05:09</property>
  <property name="eof">pause</property>
  <property name="resource">ressources/waspmote_live.mp4</property>
  <property name="audio_index">1</property>
  <property name="video_index">0</property>
  <property name="mute_on_pause">1</property>
  <property name="mlt_service">avformat-novalidate</property>
  <property name="meta.media.nb_streams">2</property>
  <property name="meta.media.0.stream.type">video</property>
  <property name="meta.media.0.stream.frame_rate">25</property>
  <property name="meta.media.0.stream.sample_aspect_ratio">1</property>
  <property name="meta.media.0.codec.width">1920</property>
  <property name="meta.media.0.codec.height">1088</property>
  <property name="meta.media.0.codec.rotate">0</property>
  <property name="meta.media.0.codec.frame_rate">25</property>
  <property name="meta.media.0.codec.pix_fmt">yuv420p</property>
  <property name="meta.media.0.codec.sample_aspect_ratio">1</property>
  <property name="meta.media.0.codec.colorspace">709</property>
  <property name="meta.media.0.codec.name">h264</property>
  <property name="meta.media.0.codec.long_name">H.264 / AVC / MPEG-4 AVC / MPEG-4 part 10</property>
  <property name="meta.media.0.codec.bit_rate">9260267</property>
  <property name="meta.attr.0.stream.language.markup">eng</property>
  <property name="meta.attr.0.stream.handler_name.markup">VideoHandle</property>
  <property name="meta.media.1.stream.type">audio</property>
  <property name="meta.media.1.codec.sample_fmt">fltp</property>
  <property name="meta.media.1.codec.sample_rate">44100</property>
  <property name="meta.media.1.codec.channels">2</property>
  <property name="meta.media.1.codec.name">aac</property>
  <property name="meta.media.1.codec.long_name">AAC (Advanced Audio Coding)</property>
  <property name="meta.media.1.codec.bit_rate">128784</property>
  <property name="meta.attr.1.stream.language.markup">eng</property>
  <property name="meta.attr.1.stream.handler_name.markup">SoundHandle</property>
  <property name="meta.attr.major_brand.markup">isom</property>
  <property name="meta.attr.minor_version.markup">512</property>
  <property name="meta.attr.compatible_brands.markup">isomiso2avc1mp41</property>
  <property name="meta.attr.encoder.markup">Lavf58.20.100</property>
  <property name="seekable">1</property>
  <property name="meta.media.sample_aspect_num">1</property>
  <property name="meta.media.sample_aspect_den">1</property>
  <property name="aspect_ratio">1</property>
  <property name="meta.media.frame_rate_num">25</property>
  <property name="meta.media.frame_rate_den">1</property>
  <property name="meta.media.colorspace">709</property>
  <property name="meta.media.color_trc">2</property>
  <property name="meta.media.width">1920</property>
  <property name="meta.media.height">1080</property>
  <property name="meta.media.top_field_first">0</property>
  <property name="meta.media.progressive">1</property>
  <property name="kdenlive:file_size">6249991</property>
  <property name="kdenlive:file_hash">72df1865a901b364c254c4dc866100b6</property>
  <property name="global_feed">1</property>
 </producer>
 <producer id="13" out="666" in="0">
  <property name="length">667</property>
  <property name="eof">pause</property>
  <property name="resource">ressources/waspmote_led_off.png</property>
  <property name="ttl">25</property>
  <property name="aspect_ratio">1</property>
  <property name="progressive">1</property>
  <property name="seekable">1</property>
  <property name="loop">1</property>
  <property name="meta.media.width">1357</property>
  <property name="meta.media.height">767</property>
  <property name="mlt_service">pixbuf</property>
  <property name="kdenlive:duration">125</property>
  <property name="kdenlive:file_size">1194047</property>
  <property name="kdenlive:file_hash">2b4e675a97052dba8add66ee399a2a0d</property>
 </producer>
 <producer id="14" out="192" in="0">
  <property name="length">193</property>
  <property name="eof">pause</property>
  <property name="resource">ressources/waspmote_led_on.png</property>
  <property name="ttl">25</property>
  <property name="aspect_ratio">1</property>
  <property name="progressive">1</property>
  <property name="seekable">1</property>
  <property name="loop">1</property>
  <property name="meta.media.width">1359</property>
  <property name="meta.media.height">767</property>
  <property name="mlt_service">pixbuf</property>
  <property name="kdenlive:duration">125</property>
  <property name="kdenlive:file_size">1203700</property>
  <property name="kdenlive:file_hash">14817ab7af14dd4d53ed427f096772f5</property>
 </producer>
 <producer id="17" title="Anonymous Submission" out="992" in="0">
  <property name="length">993</property>
  <property name="eof">pause</property>
  <property name="resource">ressources/circle.png</property>
  <property name="ttl">25</property>
  <property name="aspect_ratio">1</property>
  <property name="progressive">1</property>
  <property name="seekable">1</property>
  <property name="loop">1</property>
  <property name="meta.media.width">100</property>
  <property name="meta.media.height">100</property>
  <property name="mlt_service">pixbuf</property>
  <property name="kdenlive:duration">125</property>
  <property name="kdenlive:file_size">670</property>
  <property name="kdenlive:file_hash">6dc1133a99d055c54eceba3004dc9413</property>
  <property name="kdenlive:transparency">1</property>
  <property name="global_feed">1</property>
 </producer>
 <producer id="15" title="Anonymous Submission" out="992" in="0">
  <property name="length">993</property>
  <property name="eof">pause</property>
  <property name="resource">ressources/arrow.png</property>
  <property name="ttl">25</property>
  <property name="aspect_ratio">1</property>
  <property name="progressive">1</property>
  <property name="seekable">1</property>
  <property name="loop">1</property>
  <property name="meta.media.width">600</property>
  <property name="meta.media.height">529</property>
  <property name="mlt_service">pixbuf</property>
  <property name="kdenlive:duration">125</property>
  <property name="kdenlive:file_size">14895</property>
  <property name="kdenlive:file_hash">54aba96b4b2b8352fa2e343e6eb4e420</property>
  <property name="global_feed">1</property>
  <property name="kdenlive:transparency">1</property>
 </producer>
 <producer id="19" title="Anonymous Submission" out="5232" in="0">
  <property name="length">5233</property>
  <property name="eof">pause</property>
  <property name="resource"/>
  <property name="progressive">1</property>
  <property name="aspect_ratio">1</property>
  <property name="seekable">1</property>
  <property name="mlt_service">kdenlivetitle</property>
  <property name="kdenlive:clipname">esp console</property>
  <property name="kdenlive:folderid">-1</property>
  <property name="xmldata">&lt;kdenlivetitle width="1920" duration="125" out="125" height="1080" LC_NUMERIC="fr_CH.UTF-8">
 &lt;item z-index="2" type="QGraphicsTextItem">
  &lt;position x="1578" y="23">
   &lt;transform>1,0,0,0,1,0,0,0,1&lt;/transform>
  &lt;/position>
  &lt;content font-italic="0" letter-spacing="0" font-weight="50" box-height="49" font-outline-color="0,0,0,255" shadow="0;#64000000;3;3;3" font="Cabin" font-underline="0" font-outline="0" font-pixel-size="40" line-spacing="0" box-width="250" font-color="255,255,255,255" alignment="2">ESP32 console&lt;/content>
 &lt;/item>
 &lt;startviewport rect="0,0,1920,1080"/>
 &lt;endviewport rect="0,0,1920,1080"/>
 &lt;background color="0,0,0,0"/>
&lt;/kdenlivetitle>
</property>
  <property name="kdenlive:duration">125</property>
  <property name="force_reload">0</property>
  <property name="kdenlive:file_hash">c2153e532d5dc94c064e1909ea67dca6</property>
  <property name="global_feed">1</property>
  <property name="meta.media.width">1920</property>
  <property name="meta.media.height">1080</property>
 </producer>
 <producer id="20" title="Anonymous Submission" out="5232" in="0">
  <property name="length">5233</property>
  <property name="eof">pause</property>
  <property name="resource"/>
  <property name="progressive">1</property>
  <property name="aspect_ratio">1</property>
  <property name="seekable">1</property>
  <property name="mlt_service">kdenlivetitle</property>
  <property name="kdenlive:clipname">aws iot core test</property>
  <property name="kdenlive:folderid">-1</property>
  <property name="xmldata">&lt;kdenlivetitle width="1920" duration="125" out="125" height="1080" LC_NUMERIC="fr_CH.UTF-8">
 &lt;item z-index="2" type="QGraphicsTextItem">
  &lt;position x="1512" y="23">
   &lt;transform>1,0,0,0,1,0,0,0,1&lt;/transform>
  &lt;/position>
  &lt;content font-italic="0" letter-spacing="0" font-weight="50" box-height="49" shadow="0;#64000000;3;3;3" font="Cabin" font-underline="0" font-pixel-size="40" line-spacing="0" box-width="316" font-color="255,255,255,255" alignment="2">AWS IoT Core: Test&lt;/content>
 &lt;/item>
 &lt;startviewport rect="0,0,1920,1080"/>
 &lt;endviewport rect="0,0,1920,1080"/>
 &lt;background color="0,0,0,0"/>
&lt;/kdenlivetitle>
</property>
  <property name="kdenlive:duration">125</property>
  <property name="force_reload">0</property>
  <property name="kdenlive:file_hash">c2153e532d5dc94c064e1909ea67dca6</property>
  <property name="global_feed">1</property>
  <property name="meta.media.width">1920</property>
  <property name="meta.media.height">1080</property>
 </producer>
 <producer id="21" title="Anonymous Submission" out="5232" in="0">
  <property name="length">5233</property>
  <property name="eof">pause</property>
  <property name="resource"/>
  <property name="progressive">1</property>
  <property name="aspect_ratio">1</property>
  <property name="seekable">1</property>
  <property name="mlt_service">kdenlivetitle</property>
  <property name="kdenlive:clipname">aws iot core Act</property>
  <property name="kdenlive:folderid">-1</property>
  <property name="xmldata">&lt;kdenlivetitle width="1920" duration="125" out="125" height="1080" LC_NUMERIC="fr_CH.UTF-8">
 &lt;item z-index="2" type="QGraphicsTextItem">
  &lt;position x="1524" y="23">
   &lt;transform>1,0,0,0,1,0,0,0,1&lt;/transform>
  &lt;/position>
  &lt;content font-italic="0" letter-spacing="0" font-weight="50" box-height="49" shadow="0;#64000000;3;3;3" font="Cabin" font-underline="0" font-pixel-size="40" line-spacing="0" box-width="304" font-color="255,255,255,255" alignment="2">AWS IoT Core: Act&lt;/content>
 &lt;/item>
 &lt;startviewport rect="0,0,1920,1080"/>
 &lt;endviewport rect="0,0,1920,1080"/>
 &lt;background color="0,0,0,0"/>
&lt;/kdenlivetitle>
</property>
  <property name="kdenlive:duration">125</property>
  <property name="force_reload">0</property>
  <property name="kdenlive:file_hash">c2153e532d5dc94c064e1909ea67dca6</property>
  <property name="global_feed">1</property>
  <property name="meta.media.width">1920</property>
  <property name="meta.media.height">1080</property>
 </producer>
 <producer id="22" title="Anonymous Submission" out="5232" in="0">
  <property name="length">5233</property>
  <property name="eof">pause</property>
  <property name="resource"/>
  <property name="progressive">1</property>
  <property name="aspect_ratio">1</property>
  <property name="seekable">1</property>
  <property name="mlt_service">kdenlivetitle</property>
  <property name="kdenlive:clipname">aws dynamodb</property>
  <property name="kdenlive:folderid">-1</property>
  <property name="xmldata">&lt;kdenlivetitle width="1920" duration="125" out="125" height="1080" LC_NUMERIC="fr_CH.UTF-8">
 &lt;item z-index="2" type="QGraphicsTextItem">
  &lt;position x="1534" y="23">
   &lt;transform>1,0,0,0,1,0,0,0,1&lt;/transform>
  &lt;/position>
  &lt;content font-italic="0" letter-spacing="0" font-weight="50" box-height="49" shadow="0;#64000000;3;3;3" font="Cabin" font-underline="0" font-pixel-size="40" line-spacing="0" box-width="294" font-color="255,255,255,255" alignment="2">AWS DynamoDB&lt;/content>
 &lt;/item>
 &lt;startviewport rect="0,0,1920,1080"/>
 &lt;endviewport rect="0,0,1920,1080"/>
 &lt;background color="0,0,0,0"/>
&lt;/kdenlivetitle>
</property>
  <property name="kdenlive:duration">125</property>
  <property name="force_reload">0</property>
  <property name="kdenlive:file_hash">c2153e532d5dc94c064e1909ea67dca6</property>
  <property name="global_feed">1</property>
  <property name="meta.media.width">1920</property>
  <property name="meta.media.height">1080</property>
 </producer>
 <producer id="23" title="Anonymous Submission" out="5232" in="0">
  <property name="length">5233</property>
  <property name="eof">pause</property>
  <property name="resource"/>
  <property name="progressive">1</property>
  <property name="aspect_ratio">1</property>
  <property name="seekable">1</property>
  <property name="mlt_service">kdenlivetitle</property>
  <property name="kdenlive:clipname">aws lambda</property>
  <property name="kdenlive:folderid">-1</property>
  <property name="xmldata">&lt;kdenlivetitle width="1920" duration="125" out="125" height="1080" LC_NUMERIC="fr_CH.UTF-8">
 &lt;item z-index="2" type="QGraphicsTextItem">
  &lt;position x="1596" y="23">
   &lt;transform>1,0,0,0,1,0,0,0,1&lt;/transform>
  &lt;/position>
  &lt;content font-italic="0" letter-spacing="0" font-weight="50" box-height="49" shadow="0;#64000000;3;3;3" font="Cabin" font-underline="0" font-pixel-size="40" line-spacing="0" box-width="232" font-color="255,255,255,255" alignment="2">AWS Lambda&lt;/content>
 &lt;/item>
 &lt;startviewport rect="0,0,1920,1080"/>
 &lt;endviewport rect="0,0,1920,1080"/>
 &lt;background color="0,0,0,0"/>
&lt;/kdenlivetitle>
</property>
  <property name="kdenlive:duration">125</property>
  <property name="force_reload">0</property>
  <property name="kdenlive:file_hash">c2153e532d5dc94c064e1909ea67dca6</property>
  <property name="global_feed">1</property>
  <property name="meta.media.width">1920</property>
  <property name="meta.media.height">1080</property>
 </producer>
 <producer id="24" title="Anonymous Submission" out="5232" in="0">
  <property name="length">5233</property>
  <property name="eof">pause</property>
  <property name="resource"/>
  <property name="progressive">1</property>
  <property name="aspect_ratio">1</property>
  <property name="seekable">1</property>
  <property name="mlt_service">kdenlivetitle</property>
  <property name="kdenlive:clipname">aws cloud watch</property>
  <property name="kdenlive:folderid">-1</property>
  <property name="xmldata">&lt;kdenlivetitle width="1920" duration="125" out="125" height="1080" LC_NUMERIC="fr_CH.UTF-8">
 &lt;item z-index="2" type="QGraphicsTextItem">
  &lt;position x="1525" y="23">
   &lt;transform>1,0,0,0,1,0,0,0,1&lt;/transform>
  &lt;/position>
  &lt;content font-italic="0" letter-spacing="0" font-weight="50" box-height="49" shadow="0;#64000000;3;3;3" font="Cabin" font-underline="0" font-pixel-size="40" line-spacing="0" box-width="303" font-color="255,255,255,255" alignment="2">AWS CloudWatch&lt;/content>
 &lt;/item>
 &lt;startviewport rect="0,0,1920,1080"/>
 &lt;endviewport rect="0,0,1920,1080"/>
 &lt;background color="0,0,0,0"/>
&lt;/kdenlivetitle>
</property>
  <property name="kdenlive:duration">125</property>
  <property name="force_reload">0</property>
  <property name="kdenlive:file_hash">c2153e532d5dc94c064e1909ea67dca6</property>
  <property name="global_feed">1</property>
  <property name="meta.media.width">1920</property>
  <property name="meta.media.height">1080</property>
 </producer>
 <producer id="25" title="Anonymous Submission" out="5232" in="0">
  <property name="length">5233</property>
  <property name="eof">pause</property>
  <property name="resource"/>
  <property name="progressive">1</property>
  <property name="aspect_ratio">1</property>
  <property name="seekable">1</property>
  <property name="mlt_service">kdenlivetitle</property>
  <property name="kdenlive:clipname">websocket server log</property>
  <property name="kdenlive:folderid">-1</property>
  <property name="xmldata">&lt;kdenlivetitle width="1920" duration="125" out="125" height="1080" LC_NUMERIC="fr_CH.UTF-8">
 &lt;item z-index="2" type="QGraphicsTextItem">
  &lt;position x="1469" y="23">
   &lt;transform>1,0,0,0,1,0,0,0,1&lt;/transform>
  &lt;/position>
  &lt;content font-italic="0" letter-spacing="0" font-weight="50" box-height="49" shadow="0;#64000000;3;3;3" font="Cabin" font-underline="0" font-pixel-size="40" line-spacing="0" box-width="359" font-color="255,255,255,255" alignment="2">Websocket server log&lt;/content>
 &lt;/item>
 &lt;startviewport rect="0,0,1920,1080"/>
 &lt;endviewport rect="0,0,1920,1080"/>
 &lt;background color="0,0,0,0"/>
&lt;/kdenlivetitle>
</property>
  <property name="kdenlive:duration">125</property>
  <property name="force_reload">0</property>
  <property name="kdenlive:file_hash">c2153e532d5dc94c064e1909ea67dca6</property>
  <property name="global_feed">1</property>
  <property name="meta.media.width">1920</property>
  <property name="meta.media.height">1080</property>
 </producer>
 <producer id="26" title="Anonymous Submission" out="5232" in="0">
  <property name="length">5233</property>
  <property name="eof">pause</property>
  <property name="resource"/>
  <property name="progressive">1</property>
  <property name="aspect_ratio">1</property>
  <property name="seekable">1</property>
  <property name="mlt_service">kdenlivetitle</property>
  <property name="kdenlive:clipname">s3 bucket static website</property>
  <property name="kdenlive:folderid">-1</property>
  <property name="xmldata">&lt;kdenlivetitle width="1920" duration="125" out="125" height="1080" LC_NUMERIC="fr_CH.UTF-8">
 &lt;item z-index="2" type="QGraphicsTextItem">
  &lt;position x="1323" y="23">
   &lt;transform>1,0,0,0,1,0,0,0,1&lt;/transform>
  &lt;/position>
  &lt;content font-italic="0" letter-spacing="0" font-weight="50" box-height="49" shadow="0;#64000000;3;3;3" font="Cabin" font-underline="0" font-pixel-size="40" line-spacing="0" box-width="505" font-color="255,255,255,255" alignment="2">AWS S3 Bucket: static website&lt;/content>
 &lt;/item>
 &lt;startviewport rect="0,0,1920,1080"/>
 &lt;endviewport rect="0,0,1920,1080"/>
 &lt;background color="0,0,0,0"/>
&lt;/kdenlivetitle>
</property>
  <property name="kdenlive:duration">125</property>
  <property name="force_reload">0</property>
  <property name="kdenlive:file_hash">c2153e532d5dc94c064e1909ea67dca6</property>
  <property name="global_feed">1</property>
  <property name="meta.media.width">1920</property>
  <property name="meta.media.height">1080</property>
 </producer>
 <producer id="27" title="Anonymous Submission" out="5232" in="0">
  <property name="length">5233</property>
  <property name="eof">pause</property>
  <property name="resource"/>
  <property name="progressive">1</property>
  <property name="aspect_ratio">1</property>
  <property name="seekable">1</property>
  <property name="mlt_service">kdenlivetitle</property>
  <property name="kdenlive:clipname">aws SNS</property>
  <property name="kdenlive:folderid">-1</property>
  <property name="xmldata">&lt;kdenlivetitle width="1920" duration="125" out="125" height="1080" LC_NUMERIC="fr_CH.UTF-8">
 &lt;item z-index="2" type="QGraphicsTextItem">
  &lt;position x="1659" y="23">
   &lt;transform>1,0,0,0,1,0,0,0,1&lt;/transform>
  &lt;/position>
  &lt;content font-italic="0" letter-spacing="0" font-weight="50" box-height="49" shadow="0;#64000000;3;3;3" font="Cabin" font-underline="0" font-pixel-size="40" line-spacing="0" box-width="169" font-color="255,255,255,255" alignment="2">AWS SNS&lt;/content>
 &lt;/item>
 &lt;startviewport rect="0,0,1920,1080"/>
 &lt;endviewport rect="0,0,1920,1080"/>
 &lt;background color="0,0,0,0"/>
&lt;/kdenlivetitle>
</property>
  <property name="kdenlive:duration">125</property>
  <property name="force_reload">0</property>
  <property name="kdenlive:file_hash">c2153e532d5dc94c064e1909ea67dca6</property>
  <property name="global_feed">1</property>
  <property name="meta.media.width">1920</property>
  <property name="meta.media.height">1080</property>
 </producer>
 <producer id="28" out="5232" in="0">
  <property name="length">5233</property>
  <property name="eof">pause</property>
  <property name="resource"/>
  <property name="progressive">1</property>
  <property name="aspect_ratio">1</property>
  <property name="seekable">1</property>
  <property name="mlt_service">kdenlivetitle</property>
  <property name="kdenlive:clipname">gmail</property>
  <property name="kdenlive:folderid">-1</property>
  <property name="xmldata">&lt;kdenlivetitle width="1920" duration="125" out="125" height="1080" LC_NUMERIC="fr_CH.UTF-8">
 &lt;item z-index="2" type="QGraphicsTextItem">
  &lt;position x="1659" y="23">
   &lt;transform>1,0,0,0,1,0,0,0,1&lt;/transform>
  &lt;/position>
  &lt;content font-italic="0" letter-spacing="0" font-weight="50" box-height="49" shadow="0;#64000000;3;3;3" font="Cabin" font-underline="0" font-pixel-size="40" line-spacing="0" box-width="169" font-color="255,255,255,255" alignment="2">AWS SNS&lt;/content>
 &lt;/item>
 &lt;startviewport rect="0,0,1920,1080"/>
 &lt;endviewport rect="0,0,1920,1080"/>
 &lt;background color="0,0,0,0"/>
&lt;/kdenlivetitle>
</property>
  <property name="kdenlive:duration">125</property>
  <property name="force_reload">0</property>
  <property name="kdenlive:file_hash">c2153e532d5dc94c064e1909ea67dca6</property>
  <property name="global_feed">1</property>
  <property name="meta.media.width">1920</property>
  <property name="meta.media.height">1080</property>
 </producer>
 <producer id="29" title="Anonymous Submission" out="5232" in="0">
  <property name="length">5233</property>
  <property name="eof">pause</property>
  <property name="resource"/>
  <property name="progressive">1</property>
  <property name="aspect_ratio">1</property>
  <property name="seekable">1</property>
  <property name="mlt_service">kdenlivetitle</property>
  <property name="kdenlive:clipname">waspmote console</property>
  <property name="kdenlive:folderid">-1</property>
  <property name="xmldata">&lt;kdenlivetitle width="1920" duration="125" out="125" height="1080" LC_NUMERIC="fr_CH.UTF-8">
 &lt;item z-index="2" type="QGraphicsTextItem">
  &lt;position x="1504" y="23">
   &lt;transform>1,0,0,0,1,0,0,0,1&lt;/transform>
  &lt;/position>
  &lt;content font-italic="0" letter-spacing="0" font-weight="50" box-height="49" shadow="0;#64000000;3;3;3" font="Cabin" font-underline="0" font-pixel-size="40" line-spacing="0" box-width="324" font-color="255,255,255,255" alignment="2">Waspmote console&lt;/content>
 &lt;/item>
 &lt;startviewport rect="0,0,1920,1080"/>
 &lt;endviewport rect="0,0,1920,1080"/>
 &lt;background color="0,0,0,0"/>
&lt;/kdenlivetitle>
</property>
  <property name="kdenlive:duration">125</property>
  <property name="force_reload">0</property>
  <property name="kdenlive:file_hash">c2153e532d5dc94c064e1909ea67dca6</property>
  <property name="global_feed">1</property>
  <property name="meta.media.width">1920</property>
  <property name="meta.media.height">1080</property>
 </producer>
 <producer id="30" title="Anonymous Submission" out="5232" in="0">
  <property name="length">5233</property>
  <property name="eof">pause</property>
  <property name="resource"/>
  <property name="progressive">1</property>
  <property name="aspect_ratio">1</property>
  <property name="seekable">1</property>
  <property name="mlt_service">kdenlivetitle</property>
  <property name="kdenlive:clipname">ttn console</property>
  <property name="kdenlive:folderid">-1</property>
  <property name="xmldata">&lt;kdenlivetitle width="1920" duration="125" out="125" height="1080" LC_NUMERIC="fr_CH.UTF-8">
 &lt;item z-index="2" type="QGraphicsTextItem">
  &lt;position x="1373" y="23">
   &lt;transform>1,0,0,0,1,0,0,0,1&lt;/transform>
  &lt;/position>
  &lt;content font-italic="0" letter-spacing="0" font-weight="50" box-height="49" shadow="0;#64000000;3;3;3" font="Cabin" font-underline="0" font-pixel-size="40" line-spacing="0" box-width="455" font-color="255,255,255,255" alignment="2">The Thing Network console&lt;/content>
 &lt;/item>
 &lt;startviewport rect="0,0,1920,1080"/>
 &lt;endviewport rect="0,0,1920,1080"/>
 &lt;background color="0,0,0,0"/>
&lt;/kdenlivetitle>
</property>
  <property name="kdenlive:duration">125</property>
  <property name="force_reload">0</property>
  <property name="kdenlive:file_hash">c2153e532d5dc94c064e1909ea67dca6</property>
  <property name="global_feed">1</property>
  <property name="meta.media.width">1920</property>
  <property name="meta.media.height">1080</property>
 </producer>
 <playlist id="main bin">
  <property name="kdenlive:docproperties.audiotargettrack">-1</property>
  <property name="kdenlive:docproperties.decimalPoint">.</property>
  <property name="kdenlive:docproperties.dirtypreviewchunks"/>
  <property name="kdenlive:docproperties.disablepreview">0</property>
  <property name="kdenlive:docproperties.documentid">1547047473901</property>
  <property name="kdenlive:docproperties.enableproxy">0</property>
  <property name="kdenlive:docproperties.generateimageproxy">0</property>
  <property name="kdenlive:docproperties.generateproxy">0</property>
  <property name="kdenlive:docproperties.kdenliveversion">16.12.2</property>
  <property name="kdenlive:docproperties.position">9326</property>
  <property name="kdenlive:docproperties.previewchunks"/>
  <property name="kdenlive:docproperties.previewextension"/>
  <property name="kdenlive:docproperties.previewparameters"/>
  <property name="kdenlive:docproperties.profile">atsc_1080p_25</property>
  <property name="kdenlive:docproperties.proxyextension">mpg</property>
  <property name="kdenlive:docproperties.proxyimageminsize">2000</property>
  <property name="kdenlive:docproperties.proxyminsize">1000</property>
  <property name="kdenlive:docproperties.proxyparams">-vf scale=640:-1 -g 5 -qscale 6 -ab 128k -vcodec mpeg2video -acodec mp2</property>
  <property name="kdenlive:docproperties.version">0.95</property>
  <property name="kdenlive:docproperties.verticalzoom">0</property>
  <property name="kdenlive:docproperties.videotargettrack">1</property>
  <property name="kdenlive:docproperties.zonein">0</property>
  <property name="kdenlive:docproperties.zoneout">1028</property>
  <property name="kdenlive:docproperties.zoom">8</property>
  <property name="kdenlive:documentnotes"/>
  <property name="kdenlive:clipgroups"/>
  <property name="kdenlive:customeffects">&lt;customeffects>
 &lt;effect id="clip resize" effectcolor="#5bf6cb" tag="qtblend" type="custom">
  &lt;name>clip resize&lt;/name>
  &lt;description>Position, scale and opacity.&lt;/description>
  &lt;author>Jean-Baptiste Mardelle&lt;/author>
  &lt;parameter default="0 0 %width %height 1" value="0=98 109 1728 972 1" intimeline="1" name="rect" type="animatedrect">
   &lt;name>Rectangle&lt;/name>
  &lt;/parameter>
  &lt;parameter default="0" notintimeline="1" value="0=0" min="-360" intimeline="0" max="360" name="rotation" type="animated">
   &lt;name>Rotation&lt;/name>
  &lt;/parameter>
  &lt;parameter default="0" value="0" intimeline="0" name="compositing" paramlist="0;11;12;13;14;15;16;17;18;19;20;21;22;23;24;25;26;27;28;29;6;8" type="list">
   &lt;paramlistdisplay>Alpha blend,Xor,Plus,Multiply,Screen,Overlay,Darken,Lighten,Color dodge,Color burn,Hard light,Soft light,Difference,Exclusion,Bitwise or,Bitwise and,Bitwise xor,Bitwise nor,Bitwise nand,Bitwise not xor,Destination in,Destination out&lt;/paramlistdisplay>
   &lt;name>Compositing&lt;/name>
  &lt;/parameter>
  &lt;parameter default="0" value="0" min="0" intimeline="0" max="1" name="distort" type="bool">
   &lt;name>Distort&lt;/name>
  &lt;/parameter>
  &lt;version>1&lt;/version>
  &lt;version>1&lt;/version>
 &lt;/effect>
&lt;/customeffects>
</property>
  <property name="kdenlive:docproperties.renderaudioquality">192</property>
  <property name="kdenlive:docproperties.rendercategory">Generic (HD for web, mobile devices...)</property>
  <property name="kdenlive:docproperties.renderendguide">-1</property>
  <property name="kdenlive:docproperties.renderexportaudio">0</property>
  <property name="kdenlive:docproperties.renderguide">0</property>
  <property name="kdenlive:docproperties.renderplay">0</property>
  <property name="kdenlive:docproperties.renderprofile">MP4 - the dominating format (H264/AAC)</property>
  <property name="kdenlive:docproperties.renderquality">15</property>
  <property name="kdenlive:docproperties.renderratio">1</property>
  <property name="kdenlive:docproperties.renderrescale">0</property>
  <property name="kdenlive:docproperties.renderrescaleheight">180</property>
  <property name="kdenlive:docproperties.renderrescalewidth">320</property>
  <property name="kdenlive:docproperties.renderscanning">0</property>
  <property name="kdenlive:docproperties.renderspeed">2</property>
  <property name="kdenlive:docproperties.renderstartguide">-1</property>
  <property name="kdenlive:docproperties.rendertcoverlay">0</property>
  <property name="kdenlive:docproperties.rendertctype">0</property>
  <property name="kdenlive:docproperties.rendertwopass">0</property>
  <property name="kdenlive:docproperties.renderurl">Abdennadher_Gindre.mp4</property>
  <property name="kdenlive:docproperties.renderzone">0</property>
  <property name="xml_retain">1</property>
  <entry out="10930" producer="1" in="0"/>
  <entry out="124" producer="3" in="0"/>
  <entry out="157" producer="4" in="0"/>
  <entry out="157" producer="5" in="0"/>
  <entry out="157" producer="6" in="0"/>
  <entry out="3694" producer="7" in="0"/>
  <entry out="157" producer="8" in="0"/>
  <entry out="3694" producer="9" in="0"/>
  <entry out="157" producer="10" in="0"/>
  <entry out="5232" producer="11" in="0"/>
  <entry out="133" producer="12" in="0"/>
  <entry out="124" producer="13" in="0"/>
  <entry out="124" producer="14" in="0"/>
  <entry out="992" producer="17" in="0"/>
  <entry out="992" producer="15" in="0"/>
  <entry out="5232" producer="19" in="0"/>
  <entry out="5232" producer="20" in="0"/>
  <entry out="5232" producer="21" in="0"/>
  <entry out="5232" producer="22" in="0"/>
  <entry out="5232" producer="23" in="0"/>
  <entry out="5232" producer="24" in="0"/>
  <entry out="5232" producer="25" in="0"/>
  <entry out="5232" producer="26" in="0"/>
  <entry out="5232" producer="27" in="0"/>
  <entry out="5232" producer="28" in="0"/>
  <entry out="5232" producer="29" in="0"/>
  <entry out="5232" producer="30" in="0"/>
 </playlist>
 <producer id="black" out="20806" in="0">
  <property name="length">20807</property>
  <property name="eof">pause</property>
  <property name="resource">black</property>
  <property name="aspect_ratio">0</property>
  <property name="mlt_service">colour</property>
  <property name="set.test_audio">0</property>
 </producer>
 <playlist id="black_track">
  <entry out="10867" producer="black" in="0"/>
 </playlist>
 <producer id="1_playlist3" title="Anonymous Submission" out="10930" in="0">
  <property name="length">00:07:17:06</property>
  <property name="eof">pause</property>
  <property name="resource">ressources/assembly.mp4</property>
  <property name="audio_index">-1</property>
  <property name="video_index">0</property>
  <property name="mute_on_pause">1</property>
  <property name="mlt_service">avformat-novalidate</property>
  <property name="seekable">1</property>
  <property name="aspect_ratio">1</property>
  <property name="kdenlive:folderid">-1</property>
  <property name="kdenlive:file_size">34033997</property>
  <property name="kdenlive:file_hash">c4ece7f19af9272f67f7981354b0807e</property>
  <property name="global_feed">1</property>
  <property name="xml">was here</property>
  <property name="meta.media.nb_streams">1</property>
  <property name="meta.media.0.stream.type">video</property>
  <property name="meta.media.0.stream.frame_rate">29.97</property>
  <property name="meta.media.0.stream.sample_aspect_ratio">1</property>
  <property name="meta.media.0.codec.width">1920</property>
  <property name="meta.media.0.codec.height">1080</property>
  <property name="meta.media.0.codec.rotate">0</property>
  <property name="meta.media.0.codec.frame_rate">29.97</property>
  <property name="meta.media.0.codec.pix_fmt">yuv420p</property>
  <property name="meta.media.0.codec.sample_aspect_ratio">1</property>
  <property name="meta.media.0.codec.colorspace">709</property>
  <property name="meta.media.0.codec.color_trc">13</property>
  <property name="meta.media.0.codec.name">h264</property>
  <property name="meta.media.0.codec.long_name">H.264 / AVC / MPEG-4 AVC / MPEG-4 part 10</property>
  <property name="meta.media.0.codec.bit_rate">619870</property>
  <property name="meta.attr.0.stream.handler_name.markup">VideoHandler</property>
  <property name="meta.attr.major_brand.markup">isom</property>
  <property name="meta.attr.minor_version.markup">512</property>
  <property name="meta.attr.compatible_brands.markup">isomiso2avc1mp41</property>
  <property name="meta.attr.encoder.markup">Lavf57.83.100</property>
  <property name="meta.media.sample_aspect_num">1</property>
  <property name="meta.media.sample_aspect_den">1</property>
  <property name="meta.media.frame_rate_num">30000</property>
  <property name="meta.media.frame_rate_den">1001</property>
  <property name="meta.media.colorspace">709</property>
  <property name="meta.media.color_trc">13</property>
  <property name="meta.media.width">1920</property>
  <property name="meta.media.height">1080</property>
  <property name="meta.media.top_field_first">0</property>
  <property name="meta.media.progressive">1</property>
 </producer>
 <playlist id="playlist3">
  <property name="kdenlive:track_name">Video 1</property>
  <property name="kdenlive:locked_track">1</property>
  <blank length="225"/>
  <entry out="3693" producer="1_playlist3" in="0">
   <filter id="qtblend">
    <property name="mlt_service">qtblend</property>
    <property name="kdenlive_id">qtblend</property>
    <property name="tag">qtblend</property>
    <property name="kdenlive_ix">1</property>
    <property name="kdenlive_info"/>
    <property name="disable"/>
    <property name="rect">0=98 109 1728 972 1</property>
    <property name="rotation">0=0</property>
    <property name="compositing">0</property>
    <property name="distort">0</property>
   </filter>
  </entry>
  <blank length="75"/>
  <entry out="5048" producer="1_playlist3" in="3758">
   <filter id="clip resize">
    <property name="mlt_service">qtblend</property>
    <property name="kdenlive_id">clip resize</property>
    <property name="tag">qtblend</property>
    <property name="kdenlive_ix">1</property>
    <property name="kdenlive_info"/>
    <property name="disable"/>
    <property name="rect">0=98 109 1728 972 1</property>
    <property name="rotation">0=0</property>
    <property name="compositing">0</property>
    <property name="distort">0</property>
   </filter>
  </entry>
  <blank length="75"/>
  <entry out="9661" producer="1_playlist3" in="5272">
   <filter id="filter0">
    <property name="mlt_service">qtblend</property>
    <property name="kdenlive_id">clip resize</property>
    <property name="tag">qtblend</property>
    <property name="kdenlive_ix">1</property>
    <property name="kdenlive_info"/>
    <property name="disable"/>
    <property name="rect">0=98 109 1728 972 1</property>
    <property name="rotation">0=0;5272=0;9600=0</property>
    <property name="compositing">0</property>
    <property name="distort">0</property>
   </filter>
  </entry>
  <blank length="125"/>
  <entry out="10930" producer="1_playlist3" in="9939">
   <filter id="filter1">
    <property name="mlt_service">qtblend</property>
    <property name="kdenlive_id">clip resize</property>
    <property name="tag">qtblend</property>
    <property name="kdenlive_ix">1</property>
    <property name="kdenlive_info"/>
    <property name="disable"/>
    <property name="rect">0=98 109 1728 972 1</property>
    <property name="rotation">0=0</property>
    <property name="compositing">0</property>
    <property name="distort">0</property>
   </filter>
  </entry>
 </playlist>
 <producer id="12_playlist2" title="Anonymous Submission" out="133" in="0">
  <property name="length">00:00:05:09</property>
  <property name="eof">pause</property>
  <property name="resource">ressources/waspmote_live.mp4</property>
  <property name="audio_index">1</property>
  <property name="video_index">0</property>
  <property name="mute_on_pause">1</property>
  <property name="mlt_service">avformat-novalidate</property>
  <property name="seekable">1</property>
  <property name="aspect_ratio">1</property>
  <property name="kdenlive:file_size">6249991</property>
  <property name="kdenlive:file_hash">72df1865a901b364c254c4dc866100b6</property>
  <property name="global_feed">1</property>
  <property name="xml">was here</property>
  <property name="meta.media.nb_streams">1</property>
  <property name="meta.media.0.stream.type">video</property>
  <property name="meta.media.0.stream.frame_rate">25</property>
  <property name="meta.media.0.stream.sample_aspect_ratio">1</property>
  <property name="meta.media.0.codec.width">1920</property>
  <property name="meta.media.0.codec.height">1088</property>
  <property name="meta.media.0.codec.rotate">0</property>
  <property name="meta.media.0.codec.frame_rate">25</property>
  <property name="meta.media.0.codec.pix_fmt">yuv420p</property>
  <property name="meta.media.0.codec.sample_aspect_ratio">1</property>
  <property name="meta.media.0.codec.colorspace">709</property>
  <property name="meta.media.0.codec.name">h264</property>
  <property name="meta.media.0.codec.long_name">H.264 / AVC / MPEG-4 AVC / MPEG-4 part 10</property>
  <property name="meta.media.0.codec.bit_rate">9260267</property>
  <property name="meta.attr.0.stream.language.markup">eng</property>
  <property name="meta.attr.0.stream.handler_name.markup">VideoHandle</property>
  <property name="meta.attr.major_brand.markup">isom</property>
  <property name="meta.attr.minor_version.markup">512</property>
  <property name="meta.attr.compatible_brands.markup">isomiso2avc1mp41</property>
  <property name="meta.attr.encoder.markup">Lavf58.18.100</property>
  <property name="meta.media.sample_aspect_num">1</property>
  <property name="meta.media.sample_aspect_den">1</property>
  <property name="meta.media.frame_rate_num">25</property>
  <property name="meta.media.frame_rate_den">1</property>
  <property name="meta.media.colorspace">709</property>
  <property name="meta.media.color_trc">2</property>
  <property name="meta.media.width">1920</property>
  <property name="meta.media.height">1080</property>
  <property name="meta.media.top_field_first">0</property>
  <property name="meta.media.progressive">1</property>
 </producer>
 <playlist id="playlist2">
  <property name="kdenlive:track_name">Video 6</property>
  <property name="kdenlive:locked_track">1</property>
  <blank length="9874"/>
  <entry out="665" producer="13" in="0"/>
  <entry out="133" producer="12_playlist2" in="0"/>
  <entry out="191" producer="14" in="0"/>
 </playlist>
 <playlist id="playlist1">
  <property name="kdenlive:track_name">Video 5</property>
  <property name="kdenlive:locked_track">0</property>
  <blank length="10561"/>
  <entry out="891" producer="15" in="687">
   <filter id="filter2">
    <property name="mlt_service">qtblend</property>
    <property name="kdenlive_id">qtblend</property>
    <property name="tag">qtblend</property>
    <property name="kdenlive_ix">1</property>
    <property name="kdenlive_info"/>
    <property name="disable"/>
    <property name="rect">687=1365 790 192 108 1</property>
    <property name="rotation">687=0</property>
    <property name="compositing">0</property>
    <property name="distort">0</property>
   </filter>
  </entry>
 </playlist>
 <playlist id="playlist0">
  <property name="kdenlive:track_name">Video 4</property>
  <property name="kdenlive:locked_track">0</property>
  <blank length="9874"/>
  <entry out="991" producer="17" in="0">
   <filter id="filter3">
    <property name="mlt_service">qtblend</property>
    <property name="kdenlive_id">qtblend</property>
    <property name="tag">qtblend</property>
    <property name="kdenlive_ix">1</property>
    <property name="kdenlive_info"/>
    <property name="disable"/>
    <property name="rect">0=1512 844 126 72 1</property>
    <property name="rotation">0=0</property>
    <property name="compositing">0</property>
    <property name="distort">0</property>
   </filter>
  </entry>
 </playlist>
 <playlist id="playlist4">
  <property name="kdenlive:track_name">Video 2</property>
  <property name="kdenlive:locked_track">0</property>
  <blank length="225"/>
  <entry out="502" producer="19" in="0"/>
  <blank length="79"/>
  <entry out="299" producer="20" in="0"/>
  <blank length="28"/>
  <entry out="178" producer="21" in="0"/>
  <entry out="536" producer="22" in="0"/>
  <blank length="57"/>
  <entry out="630" producer="23" in="0"/>
  <blank length="72"/>
  <entry out="686" producer="24" in="0"/>
  <blank length="87"/>
  <entry out="287" producer="25" in="0"/>
  <blank length="70"/>
  <entry out="175" producer="26" in="0"/>
  <blank length="75"/>
  <entry out="124" producer="19" in="0"/>
  <blank length="39"/>
  <entry out="169" producer="21" in="0"/>
  <blank length="64"/>
  <entry out="364" producer="23" in="0"/>
  <blank length="49"/>
  <entry out="257" producer="27" in="0"/>
  <blank length="57"/>
  <entry out="163" producer="28" in="0"/>
  <blank length="75"/>
  <entry out="331" producer="29" in="0"/>
  <blank length="13"/>
  <entry out="551" producer="30" in="0"/>
  <blank length="45"/>
  <entry out="124" producer="21" in="0"/>
  <blank length="50"/>
  <entry out="572" producer="23" in="0"/>
  <entry out="552" producer="24" in="0"/>
  <blank length="150"/>
  <entry out="195" producer="21" in="0"/>
  <blank length="25"/>
  <entry out="464" producer="23" in="0"/>
  <entry out="549" producer="24" in="0"/>
  <blank length="36"/>
  <entry out="202" producer="25" in="0"/>
  <blank length="40"/>
  <entry out="481" producer="26" in="0"/>
  <blank length="124"/>
  <entry out="220" producer="26" in="0"/>
  <blank length="20"/>
  <entry out="138" producer="25" in="0"/>
  <blank length="36"/>
  <entry out="367" producer="30" in="0"/>
  <blank length="8"/>
  <entry out="199" producer="26" in="0"/>
 </playlist>
 <playlist id="playlist5">
  <property name="kdenlive:track_name">Video 3</property>
  <property name="kdenlive:locked_track">1</property>
  <entry out="149" producer="4" in="0"/>
  <entry out="74" producer="3" in="0"/>
  <entry out="3693" producer="5" in="0"/>
  <entry out="74" producer="6" in="0"/>
  <entry out="1290" producer="7" in="0"/>
  <entry out="74" producer="8" in="0"/>
  <entry out="4389" producer="9" in="0"/>
  <entry out="124" producer="10" in="0"/>
  <entry out="991" producer="11" in="0"/>
 </playlist>
 <tractor id="maintractor" title="Anonymous Submission" global_feed="1" out="10867" in="0">
  <track producer="black_track"/>
  <track producer="playlist3"/>
  <track producer="playlist2" hide="audio"/>
  <track producer="playlist1"/>
  <track producer="playlist0"/>
  <track producer="playlist4"/>
  <track producer="playlist5"/>
  <transition id="transition0">
   <property name="a_track">0</property>
   <property name="b_track">1</property>
   <property name="mlt_service">mix</property>
   <property name="always_active">1</property>
   <property name="combine">1</property>
   <property name="internal_added">237</property>
  </transition>
  <transition id="transition1">
   <property name="a_track">0</property>
   <property name="b_track">2</property>
   <property name="mlt_service">mix</property>
   <property name="always_active">1</property>
   <property name="combine">1</property>
   <property name="internal_added">237</property>
  </transition>
  <transition id="transition2">
   <property name="a_track">0</property>
   <property name="b_track">3</property>
   <property name="mlt_service">mix</property>
   <property name="always_active">1</property>
   <property name="combine">1</property>
   <property name="internal_added">237</property>
  </transition>
  <transition id="transition3">
   <property name="a_track">0</property>
   <property name="b_track">4</property>
   <property name="mlt_service">mix</property>
   <property name="always_active">1</property>
   <property name="combine">1</property>
   <property name="internal_added">237</property>
  </transition>
  <transition id="transition4">
   <property name="a_track">0</property>
   <property name="b_track">5</property>
   <property name="mlt_service">mix</property>
   <property name="always_active">1</property>
   <property name="combine">1</property>
   <property name="internal_added">237</property>
  </transition>
  <transition id="transition5">
   <property name="a_track">0</property>
   <property name="b_track">6</property>
   <property name="mlt_service">mix</property>
   <property name="always_active">1</property>
   <property name="combine">1</property>
   <property name="internal_added">237</property>
  </transition>
  <transition id="transition6" out="10865" in="9874">
   <property name="a_track">1</property>
   <property name="b_track">2</property>
   <property name="start">0/0:100%x100%</property>
   <property name="factory">loader</property>
   <property name="aligned">1</property>
   <property name="progressive">1</property>
   <property name="mlt_service">composite</property>
   <property name="automatic">1</property>
   <property name="kdenlive_id">composite</property>
   <property name="force_track">0</property>
   <property name="deinterlace">0</property>
   <property name="distort">0</property>
   <property name="fill">1</property>
   <property name="geometry">1333/747:527x316:100</property>
   <property name="halign">centre</property>
   <property name="luma_invert">0</property>
   <property name="operator">over</property>
   <property name="softness">0</property>
   <property name="valign">middle</property>
  </transition>
  <transition id="transition7">
   <property name="a_track">0</property>
   <property name="b_track">1</property>
   <property name="compositing">0</property>
   <property name="distort">0</property>
   <property name="mlt_service">qtblend</property>
   <property name="always_active">1</property>
   <property name="internal_added">237</property>
  </transition>
  <transition id="transition8">
   <property name="a_track">0</property>
   <property name="b_track">2</property>
   <property name="compositing">0</property>
   <property name="distort">0</property>
   <property name="mlt_service">qtblend</property>
   <property name="always_active">1</property>
   <property name="internal_added">237</property>
  </transition>
  <transition id="transition9">
   <property name="a_track">0</property>
   <property name="b_track">3</property>
   <property name="compositing">0</property>
   <property name="distort">0</property>
   <property name="mlt_service">qtblend</property>
   <property name="always_active">1</property>
   <property name="internal_added">237</property>
  </transition>
  <transition id="transition10">
   <property name="a_track">0</property>
   <property name="b_track">4</property>
   <property name="compositing">0</property>
   <property name="distort">0</property>
   <property name="mlt_service">qtblend</property>
   <property name="always_active">1</property>
   <property name="internal_added">237</property>
  </transition>
  <transition id="transition11">
   <property name="a_track">0</property>
   <property name="b_track">5</property>
   <property name="compositing">0</property>
   <property name="distort">0</property>
   <property name="mlt_service">qtblend</property>
   <property name="always_active">1</property>
   <property name="internal_added">237</property>
  </transition>
  <transition id="transition12">
   <property name="a_track">0</property>
   <property name="b_track">6</property>
   <property name="compositing">0</property>
   <property name="distort">0</property>
   <property name="mlt_service">qtblend</property>
   <property name="always_active">1</property>
   <property name="internal_added">237</property>
  </transition>
 </tractor>
</mlt>
